<svg width="31" height="31" viewBox="0 0 31 31" fill="none" xmlns="http://www.w3.org/2000/svg">
<path fill-rule="evenodd" clip-rule="evenodd" d="M8.12435 6.21416C8.85509 6.05176 9.72014 6 10.7108 6H19.5115C20.5021 6 21.3671 6.05176 22.0979 6.21416C22.8401 6.37911 23.5042 6.67134 24.0276 7.19466C24.5509 7.71798 24.8431 8.38214 25.0081 9.12435C25.1705 9.85509 25.2222 10.7201 25.2222 11.7108V16.467C25.2222 17.4576 25.1705 18.3227 25.0081 19.0534C24.8431 19.7956 24.5509 20.4598 24.0276 20.9831C23.5042 21.5064 22.8401 21.7987 22.0979 21.9636C21.3671 22.126 20.5021 22.1778 19.5115 22.1778H17.1333L18.9533 24.6044C19.2884 25.0512 19.1978 25.6849 18.7511 26.02C18.3044 26.3551 17.6706 26.2645 17.3356 25.8178L15.1111 22.8519L12.8867 25.8178C12.5516 26.2645 11.9178 26.3551 11.4711 26.02C11.0244 25.6849 10.9338 25.0512 11.2689 24.6044L13.0889 22.1778H10.7108C9.72014 22.1778 8.85509 22.126 8.12435 21.9636C7.38214 21.7987 6.71798 21.5064 6.19466 20.9831C5.67134 20.4598 5.37911 19.7956 5.21416 19.0534C5.05176 18.3227 5 17.4576 5 16.467V11.7108C5 10.7201 5.05176 9.85509 5.21416 9.12435C5.37911 8.38214 5.67134 7.71798 6.19466 7.19466C6.71798 6.67134 7.38214 6.37911 8.12435 6.21416ZM16.1222 11.0556C16.1222 10.4971 15.6695 10.0444 15.1111 10.0444C14.5527 10.0444 14.1 10.4971 14.1 11.0556L14.1 17.1222C14.1 17.6806 14.5527 18.1333 15.1111 18.1333C15.6695 18.1333 16.1222 17.6806 16.1222 17.1222L16.1222 11.0556ZM19.1556 11.0556C19.714 11.0556 20.1667 11.5082 20.1667 12.0667L20.1667 17.1222C20.1667 17.6806 19.714 18.1333 19.1556 18.1333C18.5971 18.1333 18.1444 17.6806 18.1444 17.1222L18.1444 12.0667C18.1444 11.5082 18.5971 11.0556 19.1556 11.0556ZM12.0778 13.0778C12.0778 12.5194 11.6251 12.0667 11.0667 12.0667C10.5082 12.0667 10.0556 12.5194 10.0556 13.0778L10.0556 17.1222C10.0556 17.6806 10.5082 18.1333 11.0667 18.1333C11.6251 18.1333 12.0778 17.6806 12.0778 17.1222L12.0778 13.0778Z" fill="currentColor"/>
</svg>
