<svg width="31" height="31" viewBox="0 0 31 31" fill="none" xmlns="http://www.w3.org/2000/svg">
<path fill-rule="evenodd" clip-rule="evenodd" d="M8 12.7451C8 9.01989 11.0199 6 14.7451 6C18.4703 6 21.4902 9.01989 21.4902 12.7451C21.4902 16.4703 18.4703 19.4902 14.7451 19.4902C11.0199 19.4902 8 16.4703 8 12.7451Z" fill="currentColor"/>
<path d="M9.87115 18.9188C9.52634 18.646 8.98694 18.7955 8.8803 19.222L8.18036 22.0218C7.46264 24.8927 10.5264 27.23 13.1057 25.7792L14.1989 25.1642C14.5412 24.9717 14.959 24.9717 15.3012 25.1642L16.3945 25.7792C18.9737 27.23 22.0375 24.8927 21.3198 22.0218L20.6199 19.222C20.5132 18.7955 19.9738 18.646 19.629 18.9188C18.2879 19.9799 16.593 20.6134 14.7501 20.6134C12.9072 20.6134 11.2122 19.9799 9.87115 18.9188Z" fill="currentColor"/>
</svg>
